<svg width="20" height="20" viewBox="0 0 20 20" fill="none" xmlns="http://www.w3.org/2000/svg">
<path fill-rule="evenodd" clip-rule="evenodd" d="M5.75977 2.59375C5.91936 2.59375 6.07238 2.65733 6.18498 2.77043L9.58322 6.18386C9.81702 6.4187 9.81617 6.79859 9.58133 7.03238C9.3465 7.26618 8.9666 7.26533 8.73281 7.03049L6.35977 4.64686V14.5419C6.35977 14.8733 6.09115 15.1419 5.75977 15.1419C5.4284 15.1419 5.15977 14.8733 5.15977 14.5419V4.64691L2.78694 7.03048C2.55315 7.26532 2.17326 7.26618 1.93841 7.0324C1.70357 6.79861 1.70271 6.41871 1.9365 6.18387L5.33455 2.77044C5.44715 2.65734 5.60017 2.59375 5.75977 2.59375ZM14.0335 4.85505C14.3648 4.85505 14.6335 5.12368 14.6335 5.45505V15.35L17.0063 12.9665C17.2401 12.7316 17.62 12.7308 17.8548 12.9645C18.0897 13.1983 18.0905 13.5782 17.8568 13.8131L14.4587 17.2265C14.3461 17.3396 14.1931 17.4032 14.0335 17.4032C13.8739 17.4032 13.7209 17.3396 13.6083 17.2265L10.21 13.8131C9.97624 13.5782 9.97708 13.1984 10.2119 12.9646C10.4468 12.7308 10.8267 12.7316 11.0604 12.9665L13.4335 15.3501V5.45505C13.4335 5.12368 13.7021 4.85505 14.0335 4.85505Z" fill="#0038FF"/>
</svg>
