<svg width="16" height="17" viewBox="0 0 16 17" fill="none" xmlns="http://www.w3.org/2000/svg">
<path d="M5.66539 10.8356C4.18353 9.97826 3.18555 8.37544 3.18555 6.53976C3.18555 3.80135 5.40682 1.58008 8.14522 1.58008C10.8836 1.58008 13.1049 3.80135 13.1049 6.53976C13.1049 8.37544 12.1069 9.97826 10.6251 10.8356V12.5881C10.6251 12.8558 10.4088 13.072 10.1412 13.072H6.14926C5.88162 13.072 5.66539 12.8558 5.66539 12.5881V10.8356ZM6.33071 14.0398H9.95974C10.0263 14.0398 10.0807 14.0942 10.0807 14.1607V14.6446C10.0807 14.9122 9.86448 15.1285 9.59684 15.1285H6.69361C6.42597 15.1285 6.20974 14.9122 6.20974 14.6446V14.1607C6.20974 14.0942 6.26418 14.0398 6.33071 14.0398Z" fill="#A4B5E1"/>
</svg>
