<svg xmlns="http://www.w3.org/2000/svg" viewBox="0 0 203.5 88.86">
  <g id="Layer_2" data-name="Layer 2">
      <g>
        <path class="cls-1" d="M33.79,33.65a18.6,18.6,0,0,0-9.63-2.54,19.9,19.9,0,0,0-9.48,2.26,22.37,22.37,0,0,0-6,4.62l-.72-5.88H0V88.86H9.05V65.66a15.64,15.64,0,0,0,5.13,4,18.42,18.42,0,0,0,8.35,2,22.36,22.36,0,0,0,10.52-2.44,18.14,18.14,0,0,0,7.34-7,20.74,20.74,0,0,0,2.67-10.63,22.65,22.65,0,0,0-2.49-10.8A18.1,18.1,0,0,0,33.79,33.65Zm.13,18.08a12,12,0,0,1-1.81,6.51,13.32,13.32,0,0,1-4.74,4.52A13,13,0,0,1,20.9,64.4a11.94,11.94,0,0,1-5.45-1.28,12.2,12.2,0,0,1-4.2-3.5,10.86,10.86,0,0,1-2.11-4.8V48.54a12.92,12.92,0,0,1,2.39-5,11.61,11.61,0,0,1,4.24-3.32A13.66,13.66,0,0,1,21.53,39a12.21,12.21,0,0,1,6.24,1.63,12.5,12.5,0,0,1,4.47,4.52A12.86,12.86,0,0,1,33.92,51.73Z" fill="#fff"/>
        <path class="cls-1" d="M72,32.49a20.55,20.55,0,0,0-5.89,3.78,16.83,16.83,0,0,0-3.53,4.45L62,32.65H53.78V70.81h9V53.37a12.78,12.78,0,0,1,1.82-6.61,14.33,14.33,0,0,1,5-5A12,12,0,0,1,77,40.25l.32,0,.39-9.17h-.33A16.77,16.77,0,0,0,72,32.49Z" fill="#fff"/>
        <polygon class="cls-1" points="119.74 13.52 109.42 13.52 101.81 25.81 101.52 26.28 107.64 26.28 119.74 13.52" fill="#fff"/>
        <path class="cls-1" d="M127.14,70.81V32.65h-8.39L118.19,38a17.46,17.46,0,0,0-4.75-4.47,16.42,16.42,0,0,0-9.1-2.45,20.2,20.2,0,0,0-9.86,2.49,18.57,18.57,0,0,0-7.19,7.1,21.76,21.76,0,0,0-2.67,11,21.57,21.57,0,0,0,2.58,10.9,17.3,17.3,0,0,0,7,6.79,20.7,20.7,0,0,0,9.71,2.3,17.69,17.69,0,0,0,10.75-3.41,21.82,21.82,0,0,0,3.26-2.91l.2-.21v5.62Zm-9-16.06a12.44,12.44,0,0,1-2.25,5,10.91,10.91,0,0,1-4.1,3.26,13.18,13.18,0,0,1-5.59,1.16,11.76,11.76,0,0,1-6.1-1.69,12.39,12.39,0,0,1-4.52-4.6,12.77,12.77,0,0,1-1.68-6.47,13.09,13.09,0,0,1,1.64-6.65,11.82,11.82,0,0,1,10.48-6,13.2,13.2,0,0,1,5.4,1.1,12.42,12.42,0,0,1,4.25,3.1,11.35,11.35,0,0,1,2.47,4.6Z" fill="#fff"/>
        <rect class="cls-1" x="141.12" width="9.13" height="70.81" fill="#fff"/>
        <path class="cls-1" d="M170.54,69.42a20.7,20.7,0,0,0,9.71,2.3A17.61,17.61,0,0,0,191,68.3a21.85,21.85,0,0,0,3.27-2.9l.19-.21v5.62h9V32.65h-8.38L194.56,38a17.46,17.46,0,0,0-4.75-4.47,16.43,16.43,0,0,0-9.11-2.45,20.19,20.19,0,0,0-9.85,2.49,18.57,18.57,0,0,0-7.19,7.1,21.71,21.71,0,0,0-2.67,11,21.52,21.52,0,0,0,2.58,10.9A17.24,17.24,0,0,0,170.54,69.42Zm-.32-18.05a13.19,13.19,0,0,1,1.63-6.65,11.85,11.85,0,0,1,10.49-6,13.2,13.2,0,0,1,5.4,1.1,12.36,12.36,0,0,1,4.25,3.1,11.41,11.41,0,0,1,2.47,4.6v7.24a12.44,12.44,0,0,1-2.25,5,11,11,0,0,1-4.1,3.26,13.18,13.18,0,0,1-5.59,1.16,11.76,11.76,0,0,1-6.1-1.69,12.55,12.55,0,0,1-4.52-4.6A12.77,12.77,0,0,1,170.22,51.37Z" fill="#fff"/>
      </g>
  </g>
</svg>
