<svg width="20" height="20" viewBox="0 0 20 20" fill="none" xmlns="http://www.w3.org/2000/svg">
<path fill-rule="evenodd" clip-rule="evenodd" d="M16.7519 3.49031C18.1183 4.88741 19.0267 6.68744 18.9994 8.16655L18.3728 8.15593L18.9994 8.16529L18.9994 8.16655C18.9896 8.73131 18.5615 9.22945 17.9571 9.31706C15.7434 9.63836 12.7655 9.53558 11.4514 9.46345C10.7366 9.42387 10.1708 8.88081 10.1294 8.19526C10.0542 6.96875 9.91758 4.23942 10.0191 2.12012C10.0469 1.53146 10.5405 1.01253 11.2016 1.001M16.7519 3.49031C15.3732 2.08046 13.4124 0.961873 11.2016 1.001ZM11.2699 2.20237C13.0003 2.18728 14.6252 3.07294 15.8377 4.31275C17.0681 5.57078 17.7597 7.07537 17.7464 8.13177C15.6759 8.42854 12.8303 8.33499 11.5233 8.26326C11.4447 8.25891 11.3854 8.20282 11.3808 8.12576C11.306 6.90743 11.1741 4.24995 11.2699 2.20237Z" fill="#0038FF"/>
<path fill-rule="evenodd" clip-rule="evenodd" d="M7.26495 5.67318C7.18382 5.61732 7.07268 5.59264 6.96199 5.61885C4.50308 6.19958 2.25343 8.82176 2.25343 11.6314C2.25343 15.0369 5.13202 17.7978 8.68367 17.7978C11.8976 17.7978 14.5555 15.5841 15.0351 12.6048C15.0474 12.5286 15.024 12.4567 14.9605 12.393C14.8929 12.3253 14.7861 12.2764 14.664 12.2764C13.6627 12.2764 12.8545 12.2938 12.1916 12.3113C12.0455 12.3152 11.9056 12.3191 11.7716 12.3228C11.303 12.3359 10.9072 12.3469 10.575 12.3472C9.72445 12.3479 9.11829 12.2847 8.55338 11.8833C7.97805 11.4744 7.69961 10.9023 7.55412 10.0024C7.41309 9.13017 7.37985 7.83998 7.37985 5.87628C7.37985 5.79715 7.3423 5.72644 7.26495 5.67318ZM6.66155 4.45172C7.59095 4.23164 8.63328 4.84999 8.63328 5.87628C8.63328 7.86006 8.66921 9.05418 8.79275 9.81821C8.91182 10.5547 9.09335 10.7708 9.29957 10.9173C9.51623 11.0713 9.76035 11.1457 10.574 11.145C10.8868 11.1448 11.2582 11.1344 11.7222 11.1215C11.8589 11.1177 12.0035 11.1137 12.1571 11.1096C12.8263 11.0919 13.6469 11.0743 14.664 11.0743C15.5633 11.0743 16.4328 11.8024 16.2739 12.7882C15.6998 16.3541 12.5157 19 8.68367 19C4.43987 19 1 15.7009 1 11.6314C1 8.28271 3.62862 5.16823 6.66155 4.45172Z" fill="#0038FF"/>
</svg>
