<svg width="20" height="20" viewBox="0 0 20 20" fill="none" xmlns="http://www.w3.org/2000/svg">
<path fill-rule="evenodd" clip-rule="evenodd" d="M2.35457 2.49519C3.24656 1.53834 4.51889 1 6.02857 1H13.8381C15.3514 1 16.624 1.5381 17.5153 2.49547C18.4021 3.448 18.8667 4.76669 18.8667 6.2543V13.6124C18.8667 15.1 18.4021 16.4187 17.5153 17.3712C16.624 18.3286 15.3514 18.8667 13.8381 18.8667H6.02857C4.51531 18.8667 3.24265 18.3286 2.35133 17.3712C1.46452 16.4187 1 15.1 1 13.6124V6.2543C1 4.76596 1.46695 3.44736 2.35457 2.49519ZM3.23233 3.31344C2.58623 4.00653 2.2 5.01508 2.2 6.2543V13.6124C2.2 14.8523 2.58468 15.8608 3.22962 16.5535C3.87004 17.2414 4.81168 17.6667 6.02857 17.6667H13.8381C15.055 17.6667 15.9966 17.2414 16.637 16.5535C17.282 15.8608 17.6667 14.8523 17.6667 13.6124V6.2543C17.6667 5.01434 17.282 4.00589 16.637 3.31316C15.9966 2.62527 15.055 2.2 13.8381 2.2H6.02857C4.81603 2.2 3.87407 2.62503 3.23233 3.31344ZM9.96508 5.09927C10.2965 5.09927 10.5651 5.3679 10.5651 5.69927V14.1515C10.5651 14.4829 10.2965 14.7515 9.96508 14.7515C9.63371 14.7515 9.36508 14.4829 9.36508 14.1515V5.69927C9.36508 5.3679 9.63371 5.09927 9.96508 5.09927ZM6.07619 7.83476C6.40756 7.83476 6.67619 8.10339 6.67619 8.43476V14.1515C6.67619 14.4829 6.40756 14.7515 6.07619 14.7515C5.74482 14.7515 5.47619 14.4829 5.47619 14.1515V8.43476C5.47619 8.10339 5.74482 7.83476 6.07619 7.83476ZM13.7905 10.8557C14.1218 10.8557 14.3905 11.1243 14.3905 11.4557V14.1515C14.3905 14.4829 14.1218 14.7515 13.7905 14.7515C13.4591 14.7515 13.1905 14.4829 13.1905 14.1515V11.4557C13.1905 11.1243 13.4591 10.8557 13.7905 10.8557Z" fill="#0038FF"/>
</svg>
