<svg width="98" height="98" viewBox="0 0 98 98" fill="none" xmlns="http://www.w3.org/2000/svg">
<rect width="98" height="98" fill="#D9D9D9"/>
<path d="M48.875 6C25.2321 6 6 25.3105 6 49.05C6 72.7894 25.2321 92.0999 48.875 92.0999C72.5179 92.0999 91.75 72.7894 91.75 49.05C91.75 25.3105 72.5179 6 48.875 6ZM48.875 12.1497C69.2077 12.1497 85.625 28.6343 85.625 49.05C85.625 58.4236 82.1372 66.9445 76.4255 73.4457C76.3146 65.0756 69.4865 58.2747 61.125 58.2747H36.625C28.2635 58.2747 21.4353 65.0756 21.3245 73.4457C15.6128 66.9445 12.125 58.4236 12.125 49.05C12.125 28.6343 28.5423 12.1497 48.875 12.1497ZM48.875 21.3749C40.4544 21.3749 33.5625 28.2948 33.5625 36.7498C33.5625 45.2047 40.4544 52.125 48.875 52.125C57.2956 52.125 64.1875 45.2047 64.1875 36.7498C64.1875 28.2948 57.2956 21.3749 48.875 21.3749ZM48.875 27.525C53.9854 27.525 58.0625 31.6185 58.0625 36.7498C58.0625 41.881 53.9854 45.9749 48.875 45.9749C43.7646 45.9749 39.6875 41.881 39.6875 36.7498C39.6875 31.6185 43.7646 27.525 48.875 27.525ZM36.625 64.4248H61.125C66.2679 64.4248 70.3125 68.4862 70.3125 73.65V79.001C64.2792 83.357 56.8921 85.9498 48.875 85.9498C40.8579 85.9498 33.4707 83.357 27.4375 79.001V73.65C27.4375 68.4862 31.4821 64.4248 36.625 64.4248Z" fill="#C4C4C4"/>
</svg>
