<svg width="20" height="20" viewBox="0 0 20 20" fill="none" xmlns="http://www.w3.org/2000/svg">
<path fill-rule="evenodd" clip-rule="evenodd" d="M5.2839 6.42835C5.28449 3.9822 7.39637 2 10.0004 2C12.605 2 14.7161 3.98291 14.7161 6.42936C14.7161 8.87565 12.6052 10.8595 10.0004 10.8595H9.97169L9.96953 10.8595C7.3736 10.8513 5.27569 8.86704 5.2839 6.42835ZM5.2839 6.42835C5.2839 6.42801 5.28391 6.42767 5.28391 6.42733L5.92269 6.42936H5.2839C5.2839 6.42903 5.2839 6.42869 5.2839 6.42835ZM10.0004 3.2C8.10124 3.2 6.56147 4.64582 6.56147 6.42936V6.4314H6.56147C6.55506 8.2078 8.08291 9.65299 9.97285 9.65952H10.0004C11.8993 9.65952 13.4385 8.21323 13.4385 6.42936C13.4385 4.64566 11.8994 3.2 10.0004 3.2ZM5.32979 12.9618C6.59416 12.5636 8.27121 12.4431 10.0004 12.4431C11.74 12.4431 13.4176 12.5683 14.6802 12.9717C15.3149 13.1744 15.8913 13.4617 16.3147 13.8785C16.7527 14.3097 17 14.8546 17 15.4994C17 16.1455 16.7505 16.6902 16.3099 17.1198C15.8845 17.5346 15.306 17.8191 14.6707 18.0193C13.4065 18.4176 11.7297 18.5383 10.0004 18.5383C8.26088 18.5383 6.58311 18.4133 5.32027 18.0101C4.6855 17.8074 4.10893 17.5201 3.6855 17.1033C3.24734 16.672 3 16.127 3 15.482C3 14.8357 3.24955 14.291 3.69022 13.8613C4.11573 13.4464 4.69437 13.1619 5.32979 12.9618ZM4.61029 14.6939C4.3943 14.9045 4.27757 15.1525 4.27757 15.482C4.27757 15.8128 4.39419 16.0627 4.60979 16.2749C4.84011 16.5016 5.20708 16.7065 5.73148 16.8739C6.78698 17.211 8.29003 17.3383 10.0004 17.3383C11.7025 17.3383 13.206 17.215 14.2644 16.8816C14.7904 16.7159 15.1587 16.5126 15.3898 16.2873C15.6058 16.0767 15.7224 15.8287 15.7224 15.4994C15.7224 15.1689 15.6059 14.919 15.3903 14.7068C15.16 14.4801 14.7931 14.2753 14.2689 14.1078C13.2136 13.7707 11.7107 13.6431 10.0004 13.6431C8.29828 13.6431 6.79452 13.7662 5.73591 14.0996C5.20983 14.2652 4.84145 14.4685 4.61029 14.6939Z" fill="#0038FF"/>
</svg>
