<svg width="20" height="20" viewBox="0 0 20 20" fill="none" xmlns="http://www.w3.org/2000/svg">
<path fill-rule="evenodd" clip-rule="evenodd" d="M3.51571 6.55426C3.51571 3.89272 5.99377 1 9.68333 1C13.3729 1 15.851 3.89272 15.851 6.55426C15.851 7.24296 15.9386 7.72628 16.0588 8.09875C16.1793 8.47235 16.34 8.75925 16.5239 9.06708C16.5427 9.09858 16.562 9.13063 16.5816 9.16326C16.7493 9.44186 16.9427 9.76321 17.0903 10.1495C17.2604 10.5946 17.3667 11.1114 17.3667 11.7838C17.3667 11.8011 17.3659 11.8184 17.3644 11.8356C17.3042 12.5301 17.098 13.1379 16.7069 13.6439C16.3173 14.1477 15.7788 14.506 15.1273 14.7612C13.8534 15.2601 12.0309 15.4064 9.68333 15.4064C7.33681 15.4064 5.51438 15.2624 4.24045 14.7648C3.58882 14.5102 3.04992 14.1521 2.66016 13.6475C2.26881 13.141 2.06268 12.532 2.00225 11.8356C2.00075 11.8184 2 11.8011 2 11.7838C2 11.1114 2.10629 10.5946 2.27636 10.1495C2.42401 9.76321 2.61739 9.44185 2.78504 9.16326C2.80468 9.13062 2.82396 9.09858 2.84278 9.06708C3.02669 8.75925 3.18732 8.47235 3.30786 8.09875C3.42804 7.72628 3.51571 7.24296 3.51571 6.55426ZM9.68333 2.2C6.63085 2.2 4.71571 4.58084 4.71571 6.55426C4.71571 7.34901 4.61391 7.95884 4.44989 8.46722C4.28624 8.97447 4.06794 9.35613 3.87293 9.68254C3.8536 9.7149 3.83466 9.74646 3.81613 9.77737C3.6434 10.0653 3.50499 10.2961 3.3973 10.5779C3.28505 10.8716 3.20274 11.235 3.20007 11.7575C3.24753 12.2624 3.39106 12.6308 3.60978 12.9139C3.83376 13.2038 4.17155 13.4495 4.67709 13.647C5.7175 14.0535 7.33133 14.2064 9.68333 14.2064C12.0351 14.2064 13.6493 14.0512 14.6897 13.6438C15.1954 13.4457 15.5335 13.1997 15.7575 12.9099C15.9762 12.627 16.1194 12.2598 16.1666 11.7575C16.1639 11.235 16.0816 10.8716 15.9694 10.5779C15.8617 10.2961 15.7233 10.0654 15.5505 9.77737C15.532 9.74646 15.5131 9.7149 15.4937 9.68254C15.2987 9.35613 15.0804 8.97447 14.9168 8.46722C14.7528 7.95884 14.651 7.34901 14.651 6.55426C14.651 4.58084 12.7358 2.2 9.68333 2.2ZM7.2152 16.8681C7.46168 16.6466 7.84104 16.6668 8.06252 16.9133C8.96946 17.9227 10.3274 17.913 11.2282 16.9128C11.4499 16.6666 11.8293 16.6467 12.0755 16.8685C12.3218 17.0903 12.3416 17.4696 12.1198 17.7159C10.7471 19.2402 8.55828 19.2605 7.16992 17.7154C6.94844 17.4689 6.96871 17.0895 7.2152 16.8681Z" fill="#0038FF"/>
</svg>
