<svg width="20" height="20" viewBox="0 0 20 20" fill="none" xmlns="http://www.w3.org/2000/svg">
<path fill-rule="evenodd" clip-rule="evenodd" d="M9.80492 3.06445C6.08226 3.06445 3.06445 6.08226 3.06445 9.80492C3.06445 13.5276 6.08226 16.5454 9.80492 16.5454C13.5276 16.5454 16.5454 13.5276 16.5454 9.80492C16.5454 6.08226 13.5276 3.06445 9.80492 3.06445ZM1.56445 9.80492C1.56445 5.25383 5.25383 1.56445 9.80492 1.56445C14.356 1.56445 18.0454 5.25383 18.0454 9.80492C18.0454 11.9093 17.2566 13.8294 15.9585 15.2858L18.481 17.8017C18.7743 18.0943 18.7749 18.5691 18.4824 18.8624C18.1899 19.1557 17.715 19.1563 17.4217 18.8638L14.8625 16.3112C13.4664 17.3981 11.7113 18.0454 9.80492 18.0454C5.25383 18.0454 1.56445 14.356 1.56445 9.80492Z" fill="#0038FF" fill-opacity="0.51"/>
</svg>
