<svg width="20" height="20" viewBox="0 0 20 20" fill="none" xmlns="http://www.w3.org/2000/svg">
<path fill-rule="evenodd" clip-rule="evenodd" d="M1.97789 15.1282C1.73637 15.3946 1.60039 15.7171 1.60039 16.1419C1.60039 16.5654 1.73671 16.8854 1.9786 17.1493C2.23294 17.4268 2.62999 17.669 3.18398 17.864C4.30025 18.2568 5.88114 18.4002 7.66485 18.4002C9.45718 18.4002 11.0374 18.2516 12.1505 17.8542C12.7028 17.657 13.0984 17.4129 13.3519 17.1337C13.5934 16.8678 13.7293 16.5458 13.7293 16.1214C13.7293 15.6982 13.593 15.3779 13.3508 15.1135C13.0963 14.8356 12.6989 14.593 12.1449 14.3974C11.0286 14.0035 9.4477 13.8589 7.66485 13.8589C5.87221 13.8589 4.2921 14.0083 3.17923 14.4064C2.62703 14.604 2.23142 14.8485 1.97789 15.1282ZM2.77499 13.2766C4.09067 12.8058 5.84278 12.6589 7.66485 12.6589C9.47527 12.6589 11.2266 12.8009 12.5442 13.2658C13.2071 13.4998 13.8022 13.8297 14.2358 14.303C14.6817 14.79 14.9293 15.3998 14.9293 16.1214C14.9293 16.8416 14.6839 17.4518 14.2404 17.9403C13.8089 18.4155 13.216 18.748 12.554 18.9844C11.2383 19.4541 9.48625 19.6002 7.66485 19.6002C5.85431 19.6002 4.10297 19.4596 2.78557 18.9959C2.12273 18.7626 1.52758 18.4333 1.09394 17.9601C0.647847 17.4734 0.400391 16.8635 0.400391 16.1419C0.400391 15.4215 0.64563 14.811 1.0889 14.3221C1.52016 13.8465 2.11291 13.5134 2.77499 13.2766Z" fill="#0038FF"/>
<path fill-rule="evenodd" clip-rule="evenodd" d="M7.66457 1.60039C5.6652 1.60039 3.99238 3.31515 3.99238 5.49603C3.99238 7.6769 5.6652 9.39166 7.66457 9.39166H7.69358C9.68388 9.38318 11.3435 7.66934 11.3358 5.49815L11.3358 5.49603C11.3358 3.31506 9.66288 1.60039 7.66457 1.60039ZM2.79238 5.49603C2.79238 2.71069 4.94564 0.400391 7.66457 0.400391C10.3823 0.400391 12.5352 2.7102 12.5358 5.49498V5.49603H11.9358L12.5358 5.4939L12.5358 5.49498C12.5451 8.27064 10.4067 10.581 7.69712 10.5917L7.69477 10.5917H7.66457C4.94564 10.5917 2.79238 8.28136 2.79238 5.49603Z" fill="#0038FF"/>
<path fill-rule="evenodd" clip-rule="evenodd" d="M13.8596 2.04046C13.916 1.71392 14.2264 1.4949 14.553 1.55127C16.3838 1.86732 17.7412 3.5257 17.7412 5.48068V5.48171C17.7378 7.46491 16.3372 9.14167 14.4656 9.41852C14.1378 9.46701 13.8328 9.24058 13.7843 8.91278C13.7358 8.58497 13.9622 8.27992 14.29 8.23144C15.5372 8.04695 16.5385 6.90665 16.5412 5.4802C16.541 4.07469 15.5705 2.94468 14.3488 2.73378C14.0223 2.67741 13.8033 2.367 13.8596 2.04046Z" fill="#0038FF"/>
<path fill-rule="evenodd" clip-rule="evenodd" d="M15.8422 12.6795C15.8935 12.3521 16.2005 12.1284 16.5279 12.1797C17.3184 12.3036 18.0639 12.5206 18.6253 12.9084C19.2173 13.3172 19.6006 13.9178 19.6006 14.7153C19.6006 15.2483 19.4288 15.7116 19.1112 16.0894C18.803 16.456 18.3827 16.7129 17.924 16.8963C17.6163 17.0194 17.2671 16.8697 17.1441 16.562C17.0211 16.2543 17.1708 15.9051 17.4785 15.7821C17.8223 15.6446 18.0518 15.4847 18.1926 15.3172C18.3241 15.1609 18.4006 14.9727 18.4006 14.7153C18.4006 14.3644 18.2565 14.1121 17.9433 13.8958C17.5996 13.6584 17.0623 13.4781 16.342 13.3652C16.0147 13.3139 15.7909 13.0069 15.8422 12.6795Z" fill="#0038FF"/>
</svg>
