<svg width="20" height="20" viewBox="0 0 20 20" fill="none" xmlns="http://www.w3.org/2000/svg">
<path fill-rule="evenodd" clip-rule="evenodd" d="M2.32347 7.84074C2.32347 7.42653 2.65925 7.09074 3.07347 7.09074H17.1336C17.5478 7.09074 17.8836 7.42653 17.8836 7.84074C17.8836 8.25495 17.5478 8.59074 17.1336 8.59074H3.07347C2.65925 8.59074 2.32347 8.25495 2.32347 7.84074Z" fill="#0038FF"/>
<path fill-rule="evenodd" clip-rule="evenodd" d="M12.8533 10.9227C12.8533 10.5085 13.1891 10.1727 13.6033 10.1727H13.6116C14.0258 10.1727 14.3616 10.5085 14.3616 10.9227C14.3616 11.337 14.0258 11.6727 13.6116 11.6727H13.6033C13.1891 11.6727 12.8533 11.337 12.8533 10.9227Z" fill="#0038FF"/>
<path fill-rule="evenodd" clip-rule="evenodd" d="M9.35256 10.9227C9.35256 10.5085 9.68835 10.1727 10.1026 10.1727H10.1108C10.525 10.1727 10.8608 10.5085 10.8608 10.9227C10.8608 11.337 10.525 11.6727 10.1108 11.6727H10.1026C9.68835 11.6727 9.35256 11.337 9.35256 10.9227Z" fill="#0038FF"/>
<path fill-rule="evenodd" clip-rule="evenodd" d="M5.84628 10.9227C5.84628 10.5085 6.18207 10.1727 6.59628 10.1727H6.60451C7.01873 10.1727 7.35451 10.5085 7.35451 10.9227C7.35451 11.337 7.01873 11.6727 6.60451 11.6727H6.59628C6.18207 11.6727 5.84628 11.337 5.84628 10.9227Z" fill="#0038FF"/>
<path fill-rule="evenodd" clip-rule="evenodd" d="M12.8533 13.9882C12.8533 13.574 13.1891 13.2382 13.6033 13.2382H13.6116C14.0258 13.2382 14.3616 13.574 14.3616 13.9882C14.3616 14.4024 14.0258 14.7382 13.6116 14.7382H13.6033C13.1891 14.7382 12.8533 14.4024 12.8533 13.9882Z" fill="#0038FF"/>
<path fill-rule="evenodd" clip-rule="evenodd" d="M9.35256 13.9882C9.35256 13.574 9.68835 13.2382 10.1026 13.2382H10.1108C10.525 13.2382 10.8608 13.574 10.8608 13.9882C10.8608 14.4024 10.525 14.7382 10.1108 14.7382H10.1026C9.68835 14.7382 9.35256 14.4024 9.35256 13.9882Z" fill="#0038FF"/>
<path fill-rule="evenodd" clip-rule="evenodd" d="M5.84628 13.9882C5.84628 13.574 6.18207 13.2382 6.59628 13.2382H6.60451C7.01873 13.2382 7.35451 13.574 7.35451 13.9882C7.35451 14.4024 7.01873 14.7382 6.60451 14.7382H6.59628C6.18207 14.7382 5.84628 14.4024 5.84628 13.9882Z" fill="#0038FF"/>
<path fill-rule="evenodd" clip-rule="evenodd" d="M13.2893 1.25C13.7035 1.25 14.0393 1.58579 14.0393 2V4.59587C14.0393 5.01009 13.7035 5.34587 13.2893 5.34587C12.875 5.34587 12.5393 5.01009 12.5393 4.59587V2C12.5393 1.58579 12.875 1.25 13.2893 1.25Z" fill="#0038FF"/>
<path fill-rule="evenodd" clip-rule="evenodd" d="M6.9177 1.25C7.33192 1.25 7.6677 1.58579 7.6677 2V4.59587C7.6677 5.01009 7.33192 5.34587 6.9177 5.34587C6.50349 5.34587 6.1677 5.01009 6.1677 4.59587V2C6.1677 1.58579 6.50349 1.25 6.9177 1.25Z" fill="#0038FF"/>
<path fill-rule="evenodd" clip-rule="evenodd" d="M3.4963 3.64529C4.3236 2.85886 5.47011 2.49713 6.76349 2.49713H13.4428C14.7391 2.49713 15.8865 2.85852 16.7126 3.64602C17.5442 4.43884 17.9528 5.57053 17.949 6.91071V14.108C17.949 15.4482 17.5383 16.5809 16.7066 17.375C15.8802 18.1641 14.7331 18.5281 13.4355 18.5281H6.76349C5.46561 18.5281 4.31749 18.1563 3.49106 17.3553C2.66091 16.5507 2.25 15.4048 2.25 14.0484V6.9097C2.25 5.56837 2.6632 4.43724 3.4963 3.64529ZM4.52977 4.73246C4.06026 5.17878 3.75 5.87893 3.75 6.9097V14.0484C3.75 15.1013 4.06256 15.8203 4.53501 16.2782C5.01119 16.7397 5.74482 17.0281 6.76349 17.0281H13.4355C14.4617 17.0281 15.1964 16.743 15.6707 16.2901C16.1398 15.8423 16.449 15.1399 16.449 14.108V6.9097L16.449 6.90739C16.4522 5.87605 16.1446 5.17692 15.6776 4.73174C15.2047 4.28098 14.4703 3.99713 13.4428 3.99713H6.76349C5.74032 3.99713 5.00508 4.28064 4.52977 4.73246Z" fill="#0038FF"/>
</svg>
