<svg width="20" height="20" viewBox="0 0 20 20" fill="none" xmlns="http://www.w3.org/2000/svg">
<path fill-rule="evenodd" clip-rule="evenodd" d="M13.2571 1.69141C14.5518 1.69141 15.656 2.11856 16.4359 2.92348C17.2135 3.72607 17.6129 4.84643 17.6129 6.13057V13.7939C17.6129 15.072 17.2164 16.1873 16.4452 16.9886C15.6717 17.7922 14.5763 18.2226 13.2916 18.2306L13.2879 18.2306L6.88179 18.2331L6.8807 18.2331C5.58595 18.2331 4.4816 17.8059 3.70191 17.0009C2.9245 16.1983 2.52539 15.078 2.52539 13.7939V6.13057C2.52539 4.8526 2.9216 3.73743 3.69267 2.93627C4.46597 2.1328 5.56121 1.70266 6.84586 1.69475L6.84956 1.69473L13.2571 1.69141C13.2571 1.69141 13.2567 1.69141 13.2571 2.29141V1.69141ZM13.2571 2.89141C14.2823 2.89143 15.0561 3.22386 15.5741 3.7585C16.0943 4.29549 16.4129 5.09471 16.4129 6.13057V13.7939C16.4129 14.8242 16.0969 15.6201 15.5806 16.1565C15.0668 16.6903 14.3003 17.024 13.2859 17.0306C13.2853 17.0306 13.2848 17.0306 13.2842 17.0306L6.88132 17.0331C5.85607 17.0331 5.08168 16.7007 4.56387 16.166C4.04378 15.6291 3.72539 14.8299 3.72539 13.7939V6.13057C3.72539 5.10021 4.04127 4.30455 4.55728 3.76841C5.07078 3.23488 5.83709 2.90134 6.85162 2.89474L13.2571 2.89141ZM6.48014 6.54999C6.48014 6.21862 6.74877 5.94999 7.08014 5.94999H9.37597C9.70734 5.94999 9.97597 6.21862 9.97597 6.54999C9.97597 6.88136 9.70734 7.14999 9.37597 7.14999H7.08014C6.74877 7.14999 6.48014 6.88136 6.48014 6.54999ZM6.48006 10.0307C6.48006 9.69929 6.74869 9.43066 7.08006 9.43066H13.0967C13.4281 9.43066 13.6967 9.69929 13.6967 10.0307C13.6967 10.362 13.4281 10.6307 13.0967 10.6307H7.08006C6.74869 10.6307 6.48006 10.362 6.48006 10.0307ZM6.48006 13.5194C6.48006 13.188 6.74869 12.9194 7.08006 12.9194H13.0967C13.4281 12.9194 13.6967 13.188 13.6967 13.5194C13.6967 13.8508 13.4281 14.1194 13.0967 14.1194H7.08006C6.74869 14.1194 6.48006 13.8508 6.48006 13.5194Z" fill="#0038FF"/>
</svg>
